<svg xmlns="http://www.w3.org/2000/svg" viewBox="0 0 480.71 153.92"><defs><style>.cls-1{fill:#046ec2;}.cls-2{fill:#ff0038;}.cls-3{fill:#fff;}</style></defs><g id="Capa_2" data-name="Capa 2"><g id="Capa_1-2" data-name="Capa 1"><polygon class="cls-1" points="480.71 60.3 446.47 0.43 377.5 0.15 377.31 0.47 379.01 0.48 413.25 60.34 378.72 119.62 445.99 119.89 480.71 60.3"/><polygon class="cls-2" points="405.25 60.19 371.01 0.33 302.04 0.05 301.85 0.37 303.55 0.38 337.79 60.24 303.25 119.52 370.53 119.78 405.25 60.19"/><polygon class="cls-1" points="329.73 60.24 295.48 0.38 226.51 0.1 226.33 0.42 228.02 0.43 262.27 60.29 227.73 119.57 295.01 119.83 329.73 60.24"/><polygon class="cls-2" points="254.27 60.14 220.02 0.28 151.05 0 150.87 0.32 152.56 0.33 186.81 60.19 152.27 119.47 219.55 119.73 254.27 60.14"/><polygon class="cls-1" points="178.86 60.24 144.62 0.38 75.65 0.1 75.46 0.42 77.16 0.43 111.4 60.29 76.86 119.57 144.14 119.83 178.86 60.24"/><polygon class="cls-2" points="103.4 60.14 69.15 0.28 0.18 0 0 0.32 1.69 0.33 35.94 60.19 1.4 119.47 68.68 119.73 103.4 60.14"/><path class="cls-1" d="M298.68,130.67h3v20.4h9.77v2.47H298.68Z"/><path class="cls-1" d="M332.92,141.87c0,7.87-4.78,12-10.62,12-6,0-10.28-4.69-10.28-11.61,0-7.26,4.51-12,10.62-12S332.92,135.08,332.92,141.87Zm-17.74.37c0,4.89,2.64,9.27,7.29,9.27s7.33-4.31,7.33-9.51c0-4.54-2.37-9.29-7.29-9.29S315.18,137.22,315.18,142.24Z"/><path class="cls-1" d="M354.17,152.52a21.22,21.22,0,0,1-7,1.26c-3.46,0-6.31-.88-8.55-3a11.77,11.77,0,0,1-3.19-8.52c0-6.82,4.72-11.81,12.39-11.81a14.28,14.28,0,0,1,5.7,1l-.71,2.41a12,12,0,0,0-5.06-1c-5.57,0-9.2,3.46-9.2,9.2s3.5,9.23,8.83,9.23a9.6,9.6,0,0,0,3.93-.61V143.9h-4.65v-2.37h7.54Z"/><path class="cls-1" d="M365.13,125.48l-4.35,4h-2.41l3.13-4Zm-3.5,5.19v22.87h-2.95V130.67Z"/><path class="cls-1" d="M366.38,150a10.54,10.54,0,0,0,5.3,1.49c3,0,4.78-1.6,4.78-3.9,0-2.14-1.22-3.36-4.31-4.55-3.73-1.33-6-3.26-6-6.48,0-3.57,2.95-6.21,7.4-6.21a10.38,10.38,0,0,1,5.06,1.12l-.82,2.41a9,9,0,0,0-4.34-1.09c-3.12,0-4.31,1.87-4.31,3.43,0,2.14,1.39,3.19,4.55,4.41,3.86,1.49,5.83,3.36,5.83,6.72,0,3.53-2.61,6.58-8,6.58a11.74,11.74,0,0,1-5.83-1.46Z"/><path class="cls-1" d="M387.86,133.18h-6.95v-2.51h16.93v2.51h-7v20.36h-3Z"/><path class="cls-1" d="M403.34,130.67v22.87h-2.95V130.67Z"/><path class="cls-1" d="M424.48,152.8a14.75,14.75,0,0,1-6,1.08c-6.45,0-11.3-4.07-11.3-11.57,0-7.16,4.85-12,11.94-12a12.37,12.37,0,0,1,5.43,1l-.71,2.41a10.77,10.77,0,0,0-4.61-.95c-5.37,0-8.93,3.43-8.93,9.44,0,5.6,3.23,9.19,8.79,9.19a11.78,11.78,0,0,0,4.82-1Z"/><path class="cls-1" d="M432,146.35l-2.37,7.19h-3.06l7.77-22.87h3.57l7.8,22.87h-3.15l-2.45-7.19Zm7.5-2.31-2.24-6.58c-.51-1.5-.85-2.85-1.18-4.18H436c-.34,1.36-.72,2.75-1.16,4.14L432.62,144Z"/><path class="cls-3" d="M44,37.13H71.92q8.82,0,13.56,4.47a14.63,14.63,0,0,1,4.73,11.08,15,15,0,0,1-4.49,11A14.68,14.68,0,0,1,74.9,68.18q-5.28,0-10.52-4v19H44Zm20.35,9.94v10a6.55,6.55,0,0,0,1.69.24,5,5,0,0,0,3.71-1.44,5.22,5.22,0,0,0,1.41-3.8A5.28,5.28,0,0,0,70,48.42a4.38,4.38,0,0,0-3.44-1.35Z"/><path class="cls-3" d="M230.6,71.57V83.11H192.41v-46H230.6V48.66H212.76v5.7h12.42V65.9H212.76v5.67Z"/><path class="cls-3" d="M113.5,37.11h30.05q7.81,0,12.27,3.94a12.55,12.55,0,0,1,4.46,9.84A11.75,11.75,0,0,1,155,61.08q7.44,8.51,8.89,22H142.8q-.57-8.7-2.61-12.87a6.67,6.67,0,0,0-6.34-4.16v17H113.5Zm20.35,9.47v8.86h.57q5.49,0,5.49-4.31A4.9,4.9,0,0,0,138.79,48a4.53,4.53,0,0,0-3.71-1.37Z"/><path class="cls-3" d="M307,39.46,302,54q-5-6.72-11.42-6.72c-2.4,0-3.59.91-3.59,2.71a2.34,2.34,0,0,0,1.13,1.72A30.46,30.46,0,0,0,294,54.42a56.68,56.68,0,0,1,8.13,3.78,11.17,11.17,0,0,1,4.26,4.35,12.87,12.87,0,0,1,1.42,6.18q0,7.39-5.61,11.26t-16.49,3.88q-12.21,0-21-3.47l5-15.37A16.89,16.89,0,0,0,275,70.39a11.69,11.69,0,0,0,6.16,2,3.89,3.89,0,0,0,2.43-.75,2.26,2.26,0,0,0,1-1.84,2.76,2.76,0,0,0-1-2,18.77,18.77,0,0,0-5-2.59,49.3,49.3,0,0,1-6.09-2.88,13,13,0,0,1-4.19-4,11.24,11.24,0,0,1-1.78-6.54q0-7.65,5.58-11.54t16.46-3.89A53.62,53.62,0,0,1,307,39.46Z"/><path class="cls-3" d="M343.27,57.49V37.11h40.88V57.49H373.9V83.11H353.52V57.49Z"/><path class="cls-3" d="M440.65,83.87A22.64,22.64,0,0,1,423.94,77a23,23,0,0,1-6.86-16.87,23.59,23.59,0,1,1,47.17,0A23,23,0,0,1,457.4,77,22.72,22.72,0,0,1,440.65,83.87Zm0-29.85a4.25,4.25,0,0,0-3.25,1.38,5.23,5.23,0,0,0,0,6.9,4.28,4.28,0,0,0,3.25,1.37,4.35,4.35,0,0,0,3.29-1.37,5.26,5.26,0,0,0,0-6.9A4.33,4.33,0,0,0,440.65,54Z"/></g></g></svg>