<svg xmlns="http://www.w3.org/2000/svg" xmlns:xlink="http://www.w3.org/1999/xlink" viewBox="0 0 399.29 113.2"><defs><style>.cls-1{opacity:0.6;fill:url(#Degradado_sin_nombre_21);}.cls-2{opacity:0.8;fill:url(#Degradado_sin_nombre_21-2);}.cls-3{fill:url(#Degradado_sin_nombre_21-3);}.cls-4{opacity:0.4;fill:url(#Degradado_sin_nombre_21-4);}</style><linearGradient id="Degradado_sin_nombre_21" x1="158.28" y1="113.2" x2="158.28" y2="0.27" gradientUnits="userSpaceOnUse"><stop offset="0" stop-color="#f7931e"/><stop offset="1" stop-color="#1b1464"/></linearGradient><linearGradient id="Degradado_sin_nombre_21-2" x1="243.37" y1="112.93" x2="243.37" y2="0" xlink:href="#Degradado_sin_nombre_21"/><linearGradient id="Degradado_sin_nombre_21-3" x1="328.83" y1="112.93" x2="328.83" y2="0" xlink:href="#Degradado_sin_nombre_21"/><linearGradient id="Degradado_sin_nombre_21-4" x1="70.46" y1="112.93" x2="70.46" y2="0" xlink:href="#Degradado_sin_nombre_21"/></defs><g id="Capa_2" data-name="Capa 2"><g id="Capa_1-2" data-name="Capa 1"><polygon class="cls-1" points="228.74 59.82 153.05 0.53 88 0.27 87.82 0.57 89.42 0.57 165.11 59.87 89.15 112.95 152.6 113.2 228.74 59.82"/><polygon class="cls-2" points="313.83 59.56 238.14 0.26 173.09 0 172.91 0.3 174.51 0.31 250.2 59.6 174.24 112.68 237.69 112.93 313.83 59.56"/><polygon class="cls-3" points="399.29 59.56 323.6 0.26 258.55 0 258.37 0.3 259.97 0.31 335.66 59.6 259.69 112.68 323.15 112.93 399.29 59.56"/><polygon class="cls-4" points="140.92 59.56 65.23 0.26 0.17 0 0 0.3 1.6 0.31 77.29 59.6 1.32 112.68 64.78 112.93 140.92 59.56"/></g></g></svg>