<svg xmlns="http://www.w3.org/2000/svg" viewBox="0 0 480.68 153.95"><defs><style>.cls-1{fill:#f7931e;}.cls-2{fill:#1b1464;}.cls-3{fill:#0900c3;}.cls-4{fill:#fff;}</style></defs><g id="Capa_2" data-name="Capa 2"><g id="Capa_1-2" data-name="Capa 1"><polygon class="cls-1" points="480.68 60.33 446.43 0.46 377.46 0.19 377.27 0.51 378.97 0.51 413.21 60.38 378.68 119.65 445.95 119.92 480.68 60.33"/><polygon class="cls-2" points="405.21 60.23 370.97 0.36 302 0.09 301.81 0.4 303.51 0.41 337.75 60.28 303.22 119.55 370.49 119.82 405.21 60.23"/><polygon class="cls-1" points="329.69 60.28 295.44 0.41 226.48 0.14 226.29 0.45 227.99 0.46 262.23 60.33 227.69 119.6 294.97 119.87 329.69 60.28"/><polygon class="cls-2" points="254.23 60.17 219.98 0.31 151.01 0.03 150.83 0.35 152.52 0.36 186.77 60.23 152.23 119.5 219.51 119.77 254.23 60.17"/><polygon class="cls-1" points="178.82 60.28 144.58 0.41 75.61 0.14 75.42 0.45 77.12 0.46 111.36 60.33 76.83 119.6 144.1 119.87 178.82 60.28"/><polygon class="cls-2" points="103.36 60.21 69.15 0.32 0.19 0 0 0.32 1.69 0.33 35.9 60.22 1.32 119.47 68.6 119.78 103.36 60.21"/><path class="cls-3" d="M298.64,130.7h3v20.4h9.77v2.48H298.64Z"/><path class="cls-3" d="M332.89,141.9c0,7.87-4.79,12-10.63,12-6,0-10.28-4.68-10.28-11.61,0-7.26,4.51-12,10.62-12S332.89,135.11,332.89,141.9Zm-17.75.37c0,4.89,2.64,9.27,7.29,9.27s7.33-4.31,7.33-9.5c0-4.55-2.37-9.3-7.29-9.3S315.14,137.25,315.14,142.27Z"/><path class="cls-3" d="M354.13,152.56a21.48,21.48,0,0,1-7,1.25c-3.46,0-6.31-.88-8.55-3a11.75,11.75,0,0,1-3.19-8.52c0-6.82,4.72-11.8,12.39-11.8a14,14,0,0,1,5.7,1.05l-.71,2.41a11.74,11.74,0,0,0-5.06-1c-5.56,0-9.2,3.46-9.2,9.2s3.5,9.23,8.83,9.23a9.57,9.57,0,0,0,3.93-.61v-6.82h-4.65v-2.38h7.54Z"/><path class="cls-3" d="M365.09,125.51l-4.34,4h-2.41l3.12-4Zm-3.5,5.19v22.88h-2.95V130.7Z"/><path class="cls-3" d="M366.34,150a10.54,10.54,0,0,0,5.3,1.49c3,0,4.78-1.59,4.78-3.9,0-2.14-1.22-3.36-4.31-4.55-3.73-1.32-6-3.26-6-6.48,0-3.56,3-6.21,7.4-6.21a10.38,10.38,0,0,1,5.06,1.12l-.82,2.41a9,9,0,0,0-4.34-1.09c-3.12,0-4.31,1.87-4.31,3.43,0,2.14,1.39,3.19,4.55,4.41,3.87,1.5,5.83,3.36,5.83,6.72,0,3.53-2.61,6.58-8,6.58a11.87,11.87,0,0,1-5.84-1.45Z"/><path class="cls-3" d="M387.83,133.21h-7V130.7H397.8v2.51h-7v20.37h-3Z"/><path class="cls-3" d="M403.3,130.7v22.88h-2.95V130.7Z"/><path class="cls-3" d="M424.44,152.83a14.71,14.71,0,0,1-6,1.08c-6.45,0-11.3-4.07-11.3-11.57,0-7.16,4.85-12,11.95-12a12.21,12.21,0,0,1,5.43,1l-.72,2.41a10.63,10.63,0,0,0-4.61-.95c-5.36,0-8.93,3.42-8.93,9.43,0,5.6,3.23,9.2,8.79,9.2a11.94,11.94,0,0,0,4.82-.95Z"/><path class="cls-3" d="M432,146.38l-2.37,7.2h-3.05l7.77-22.88h3.56l7.8,22.88h-3.15l-2.44-7.2Zm7.5-2.31-2.24-6.58c-.5-1.49-.84-2.85-1.18-4.17H436c-.34,1.35-.71,2.75-1.15,4.14l-2.24,6.61Z"/><path class="cls-4" d="M44,37.16H71.88q8.84,0,13.56,4.48a14.6,14.6,0,0,1,4.74,11.07,15,15,0,0,1-4.5,11,14.71,14.71,0,0,1-10.82,4.52q-5.28,0-10.52-4v19H44Zm20.35,10v10a6.61,6.61,0,0,0,1.69.24,5,5,0,0,0,3.71-1.45,5.22,5.22,0,0,0,1.41-3.8A5.28,5.28,0,0,0,70,48.45a4.41,4.41,0,0,0-3.44-1.34Z"/><path class="cls-4" d="M230.56,71.6V83.15H192.37v-46h38.19V48.69H212.72v5.7h12.42V65.93H212.72V71.6Z"/><path class="cls-4" d="M113.46,37.15h30.06q7.8,0,12.26,3.93a12.56,12.56,0,0,1,4.47,9.84A11.76,11.76,0,0,1,155,61.11q7.44,8.51,8.89,22H142.76q-.57-8.72-2.61-12.88a6.67,6.67,0,0,0-6.34-4.16v17H113.46Zm20.35,9.46v8.86h.57c3.66,0,5.49-1.43,5.49-4.31A4.88,4.88,0,0,0,138.75,48a4.52,4.52,0,0,0-3.7-1.37Z"/><path class="cls-4" d="M307,39.5,301.92,54q-5-6.72-11.42-6.73-3.58,0-3.59,2.72A2.37,2.37,0,0,0,288,51.71,31.32,31.32,0,0,0,294,54.45a59,59,0,0,1,8.13,3.78,11.19,11.19,0,0,1,4.26,4.36,12.87,12.87,0,0,1,1.42,6.18q0,7.38-5.61,11.26T285.67,83.9q-12.19,0-21-3.47l5-15.37A17,17,0,0,0,275,70.43a11.78,11.78,0,0,0,6.16,2,3.87,3.87,0,0,0,2.43-.76,2.25,2.25,0,0,0,1-1.84,2.78,2.78,0,0,0-.95-2,19.08,19.08,0,0,0-5-2.59,46.55,46.55,0,0,1-6.09-2.88,13,13,0,0,1-4.19-4,11.28,11.28,0,0,1-1.78-6.54q0-7.66,5.58-11.55t16.46-3.89A53.62,53.62,0,0,1,307,39.5Z"/><path class="cls-4" d="M343.23,57.52V37.15h40.88V57.52H373.86V83.15H353.48V57.52Z"/><path class="cls-4" d="M440.6,83.92A22.67,22.67,0,0,1,423.88,77,23.06,23.06,0,0,1,417,60.13a23.59,23.59,0,1,1,47.18,0A23.07,23.07,0,0,1,457.34,77,22.68,22.68,0,0,1,440.6,83.92Zm0-29.85a4.28,4.28,0,0,0-3.26,1.38,5.23,5.23,0,0,0,0,6.9,4.59,4.59,0,0,0,6.54,0,5.24,5.24,0,0,0,0-6.91A4.33,4.33,0,0,0,440.6,54.07Z"/></g></g></svg>